<?xml version="1.0" encoding="UTF-8" standalone="no"?>
<svg
   id="Calque_1"
   data-name="Calque 1"
   viewBox="0 0 960.98 960.64"
   version="1.1"
   sodipodi:docname="logo_dal_rosso_simply.svg"
   inkscape:export-filename="teste_3.svg"
   inkscape:export-xdpi="96"
   inkscape:export-ydpi="96"
   inkscape:version="1.3 (0e150ed6c4, 2023-07-21)"
   xmlns:inkscape="http://www.inkscape.org/namespaces/inkscape"
   xmlns:sodipodi="http://sodipodi.sourceforge.net/DTD/sodipodi-0.dtd"
   xmlns="http://www.w3.org/2000/svg"
   xmlns:svg="http://www.w3.org/2000/svg"
   xmlns:rdf="http://www.w3.org/1999/02/22-rdf-syntax-ns#"
   xmlns:cc="http://creativecommons.org/ns#"
   xmlns:dc="http://purl.org/dc/elements/1.1/">
  <sodipodi:namedview
     id="namedview34"
     pagecolor="#ffffff"
     bordercolor="#666666"
     borderopacity="1.0"
     inkscape:showpageshadow="2"
     inkscape:pageopacity="0.0"
     inkscape:pagecheckerboard="0"
     inkscape:deskcolor="#d1d1d1"
     inkscape:zoom="0.81924549"
     inkscape:cx="439.42872"
     inkscape:cy="577.97083"
     inkscape:window-width="1920"
     inkscape:window-height="1001"
     inkscape:window-x="-9"
     inkscape:window-y="-9"
     inkscape:window-maximized="1"
     inkscape:current-layer="Calque_1" />
  <defs
     id="defs1">
    <style
       id="style1">.cls-1{fill:#902000;}</style>
  </defs>
  <title
     id="title1">logo_dal_rosso</title>
  <path
     class="cls-1"
     d="m 535.11,517.33 c -2.3,1.24 -4.71,2.32 -6.89,3.75 -28.79,18.75 -60.81,29.12 -94,36.63 -13.64,3.08 -27.47,5.76 -40.64,10.29 -15.38,5.28 -17,5.78 -19.45,21.15 a 27.25,27.25 0 0 1 -3,8.4 c -4,7.37 -4.73,15.17 -3.87,23.28 0.17,1.66 0.48,3.3 0.62,5 0.6,7.31 4,15.13 -4.63,21.2 -9.77,-5.14 -18.87,-11.88 -23.34,-23.15 a 169.92,169.92 0 0 1 -7.09,-22.37 11.43,11.43 0 0 1 1.68,-8.62 c 8.38,-10.77 17,-21.4 26.11,-31.54 a 60.53,60.53 0 0 1 14.68,-11.77 c 25.55,-14.68 51.06,-29.47 77.13,-43.19 a 499.54,499.54 0 0 1 97.67,-39.23 c 1.6,-0.45 3.21,-0.91 4.83,-1.28 10.65,-2.41 14.47,-0.26 18.53,9.75 16.17,39.87 25.93,81.5 33.51,123.66 1.36,7.58 3.93,12.71 9.89,17.59 16.55,13.55 26,31.42 28.23,52.75 0.45,4.18 3.29,5.36 6,7.19 16.79,11.42 33.64,22.74 50.26,34.39 4.46,3.13 8.14,7.37 12.29,11 a 72.3,72.3 0 0 0 6.09,4.27 c 0,-6.77 0.27,-12.56 0,-18.33 -1.61,-29.19 4,-57.34 11.86,-85.22 4.17,-14.91 8.24,-29.85 12,-44.88 2.64,-10.65 2.16,-20.52 -9,-26.89 a 16.54,16.54 0 0 1 -5.36,-5.8 c -4.8,-7.95 -11.94,-12.79 -20.3,-16.25 -5.06,-2.1 -10.31,-4 -14.89,-6.88 -2.45,-1.54 -3.66,-5 -4.62,-6.44 0.77,-3.28 0.83,-5.47 1.79,-7.13 1.34,-2.32 2.95,-5.09 5.17,-6.14 a 94.13,94.13 0 0 1 16,-5.64 c 1.83,-0.5 4.34,0.22 6.15,1.14 5.28,2.7 10.24,6.05 15.58,8.59 2.77,1.31 6.09,1.54 9.18,2.09 4,0.72 6.36,2.72 7.81,6.7 3.91,10.8 8.17,21.48 12.47,32.13 a 66.62,66.62 0 0 1 5.13,25.77 c -0.26,35 0.39,70 -0.51,104.93 -0.78,30.2 -5.54,60 -12.53,89.44 -2.35,9.89 -7.14,12.53 -18.17,11.31 -38.45,-4.25 -75.57,-14.36 -112.25,-26 -10.42,-3.3 -18.55,-3.06 -28.8,1.68 -26.09,12.07 -52.26,9.62 -76.83,-5.57 -4,-2.48 -7.07,-2.78 -11.36,-0.89 -19.1,8.42 -38.77,15.15 -59.39,18.83 a 25.18,25.18 0 0 0 -4.27,1.35 25.93,25.93 0 0 0 -2.77,1.54 c 6.12,4.19 11.65,8.08 17.29,11.82 21.6,14.32 39.58,32.39 55.79,52.52 11.7,14.51 24.19,28.4 36.61,42.31 7.2,8.07 15.71,12.15 26.59,6.58 a 14.78,14.78 0 0 1 7.3,-1.21 c 9.48,0.57 17.66,-2.66 25.27,-7.88 1.93,-1.32 3.81,-2.7 5.75,-4 5.39,-3.58 10.56,-8.09 18.38,-3.94 -0.45,12.12 -2.36,24 -11.55,33.55 -4.86,5 -9.65,10.19 -15,14.64 -2.24,1.85 -6.14,3.2 -8.89,2.68 -13.41,-2.51 -26.73,-5.58 -40,-8.8 a 41.46,41.46 0 0 1 -12.5,-4.85 c -40.34,-25.7 -80.07,-52.32 -115.54,-84.62 -14.75,-13.44 -28.53,-28 -42.36,-42.38 -8.85,-9.23 -8,-13.92 0.5,-23.45 26.53,-29.79 57.81,-54.13 88.9,-78.74 a 9.83,9.83 0 0 0 3.41,-5.57 c 4.09,-26.54 17.54,-46.74 40.6,-60.44 3,-1.79 3.18,-4.17 3.46,-7.07 2,-21 4,-42.07 6.4,-63.06 0.78,-6.67 3,-13.18 4.53,-19.76 z m 107.75,161.86 c -0.06,-43.58 -35.88,-79.42 -79.26,-79.3 a 79.62,79.62 0 0 0 -79.35,79.71 c -0.07,42.52 34.92,79.94 81.74,79.24 41.61,-0.62 76.93,-36.73 76.87,-79.65 z m -286.52,-66.1 -8.87,4.43 11.46,18.48 0.66,-0.23 c -1.07,-7.47 -2.13,-14.89 -3.25,-22.68 z M 615.46,894 626,876.2 l -0.71,-0.44 -17.49,12.29 z m 90.37,-376.59 16.06,6.32 c 0.28,-2 -0.07,-3.88 -1,-4.19 -4.72,-1.65 -9.04,-6.6 -15.06,-2.16 z"
     transform="translate(-83.93,-201.96)"
     id="path3"
     style="display:inline;fill:#7e280d;fill-opacity:1" />
  <path
     class="cls-1"
     d="M566.48,685.4l4.55-2-.82-1c1.48-1.61,2.65-3.89,4.47-4.72,11.68-5.27,23.5-10.22,35.27-15.27,3.65-1.57,7.29-3.18,11-4.71,9.35-3.9,17.13.46,17.85,10.46a167.77,167.77,0,0,1,.06,22c-.57,9.2-7.24,13.64-16.09,10.88-9.68-3-19.23-6.5-28.84-9.78a10.84,10.84,0,0,0-5.9-.77c9.15,3.62,18.25,7.4,27.48,10.82,13.9,5.14,16.44,15.7,6.14,26.37-3.47,3.59-7,7.15-10.56,10.63-8.34,8.12-13.42,8.16-21.9-.14-.17,1.52-.27,2.72-.45,3.91-.9,6.11-5.71,10.43-12.57,10.71-7.32.31-14.66.41-22,.16-10.65-.36-16.61-9.68-12.75-19.67,2.39-6.17,5-12.24,6.6-18.79-2.82,5.84-5.79,11.61-8.41,17.53-5.43,12.24-16.25,14-25.14,4.09-4-4.46-8.47-8.51-12.28-13.11-7.08-8.56-4.37-17.39,6.1-21q14.61-5.06,29.19-10.23a5.88,5.88,0,0,0,3.11-2.19c-10.65,3.59-21.37,7-31.93,10.83-12.74,4.61-19.75-.11-19.77-13.68,0-5.49-.17-11,.07-16.48.49-11.37,7.75-16.19,18.32-11.91,15.55,6.3,31,13,46.42,19.48,3.13,1.32,5.49,2.93,1.87,6.86l7,.38c-.67-3.19-1.11-5.3-1.55-7.42l7.07-.17C567.59,679.92,567.08,682.43,566.48,685.4Zm-38.21,3.22c-.07-.55-.15-1.1-.23-1.65-6.75-1.15-14.81.27-18.34,4Zm-10.36,34.83,1.81,1.6L532,711.25l-1.82-1.61ZM603,734.77l1.74-1.61q-6-7.1-12-14.18l-1.76,1.5Q597,727.62,603,734.77Zm9.75-25.72c.35-.74.69-1.49,1-2.23l-16.58-8.55-1,2Zm-108.4-41.12-.3,2.53L522,673l.35-2.37Zm94,12.66-.29-2.52-18.3,2.16.26,2.28Zm-39.12,30.88,2.35.28,2.43-16.69-2.13-.32Q560.6,703.11,559.28,711.47ZM524.6,676c-.12.79-.25,1.57-.38,2.36l17.46,2.72.36-2.21Zm23.14,31.59-2-1.14-8.87,15.47,1.86,1.07Zm13.58,17-2.4-.22-1.62,17.86,2.32.22Q560.48,733.51,561.32,724.59Zm43.19-36.73,0,1.31h18.09l0-1.31Zm15.38-15-.3-2.18-16.79,2.3.31,2.2Zm-47.82,60.4,2.43-.25-2.23-17.26-2.09.27Zm20.14-27.47,1.53-2-10.22-7.19c-.41.57-.83,1.14-1.24,1.72Zm-52.65-3,1.59,1.73L550.9,696l-1.49-1.71Z"
     transform="translate(-83.93 -201.96)"
     id="path25"
     style="fill:#7e280d;fill-opacity:1" />
  <path
     class="cls-1"
     d="m 559.78,669.38 c 0.09,1 0.23,2 0.27,3 0.16,3.92 -1.59,5.35 -5.23,3.69 q -13.83,-6.3 -27.57,-12.78 c -6,-2.84 -11.93,-5.86 -17.93,-8.72 -11.15,-5.3 -12.62,-13.65 -3.86,-22.44 4.35,-4.35 8.65,-8.76 13.14,-13 7.17,-6.7 15.77,-5.17 19.94,3.79 6.38,13.71 12.39,27.58 18.59,41.37 0.81,1.8 1.85,3.49 2.79,5.23 z m -27.66,-31.91 -1.69,1.53 q 6.15,6.86 12.29,13.73 l 1.74,-1.57 z m -10.78,6.58 -1.4,1.92 14.42,9.84 1.23,-1.81 z m 32.07,29.05 1.58,-1.8 -13.7,-11.39 -1.29,1.58 z"
     transform="translate(-83.93,-201.96)"
     id="path26"
     style="display:inline;fill:#7e280d;fill-opacity:1" />
  <path
     class="cls-1"
     d="M559.92,669.53q-8-21.66-16-43.34a30.35,30.35,0,0,1-1.91-6.65c-1-7.76,3.27-13.09,11.08-13.36a175.34,175.34,0,0,1,20.88.6c11.05.94,14.58,5.76,12.71,16.57-.2,1.14-.61,2.24-.91,3.36l-5.37,14-10.47,25.18a20.94,20.94,0,0,1-1.76,4.11,38.71,38.71,0,0,1-3.78,4.14c-1.15-1.25-2.3-2.51-3.47-3.75a14.61,14.61,0,0,0-1.09-1Zm5.3-30.37-1.5.18v18.51h1.5Zm-6.63-9.62,1.55.05V611.45h-1.55Zm14.13,7.78,1.44.21v-18h-1.44Z"
     transform="translate(-83.93 -201.96)"
     id="path27"
     style="fill:#7e280d;fill-opacity:1" />
  <path
     class="cls-1"
     d="M580.35,640.68l5.37-14a54.42,54.42,0,0,1,3.73-7c4.33-6,11.43-6.94,17-2.15s11.13,10,16.3,15.38c6.37,6.66,5.47,14.76-2.58,19.16-15,8.19-30.33,15.8-45.56,23.57-1.39.7-3.07.83-5.7,1.5.47-2.94.51-5,1.15-6.93C573.38,660.36,576.89,650.53,580.35,640.68Zm-5.06,27.91,2,1.5,11-14.54-2-1.47Zm9.84-20.53,2,1.61,10.67-15-2-1.39Zm12.62,7.76,1.87,1.76,12.49-13.68-1.74-1.6Q604.05,649.05,597.75,655.82Z"
     transform="translate(-83.93 -201.96)"
     id="path28"
     style="fill:#7e280d;fill-opacity:1" />
  <metadata
     id="metadata34">
    <rdf:RDF>
      <cc:Work
         rdf:about="">
        <dc:title>logo_dal_rosso</dc:title>
      </cc:Work>
    </rdf:RDF>
  </metadata>
</svg>
