<svg id="Calque_1" data-name="Calque 1" xmlns="http://www.w3.org/2000/svg" viewBox="0 0 960.98 960.64"><defs><style>.cls-1{fill:#cf0a1d;}</style></defs><title>logo_dal_rosso_rouge_groseille</title><path class="cls-1" d="M532.91,1162.6c-7.55-.93-15.09-2-22.66-2.77A477.39,477.39,0,0,1,250.6,1046.25q-110.79-96.51-150-238.37A466.49,466.49,0,0,1,85.09,651c5.48-79.4,28.62-153.32,70.68-221q72.45-116.58,195.49-177.89,116.06-57.76,245.53-48.91c82.53,5.74,158.86,30.85,228.42,76,68.32,44.3,121.82,102.42,161,173.67,18.45,33.55,32,69.07,42.43,106,9.21,32.63,13.12,65.87,15.43,99.47.12,1.8.55,3.57.84,5.36v37c-.29,1.79-.73,3.57-.85,5.37-2.29,33.92-6,67.57-15.54,100.43-6.56,22.59-13.82,44.86-23.14,66.46-30.22,70.11-74.83,129.49-133.29,178.47a475.62,475.62,0,0,1-155.17,86.86,455.4,455.4,0,0,1-97.34,21.63c-7.57.81-15.11,1.85-22.67,2.78Zm30.64-939.32C310.6,223.52,105.26,429.35,105.2,682.6c-.06,252.51,206.43,464.24,469.45,459.05,241.67-4.78,449.89-202,448.75-462.17C1022.31,430.34,820.47,223.43,563.55,223.28Z" transform="translate(-83.93 -201.96)"/><path class="cls-1" d="M992.32,681.21C992.63,918.07,801,1111,564.33,1113,324.46,1114.88,129.32,921.13,129,682S321.35,249.78,560.08,249.22C798.54,248.65,992.05,442.05,992.32,681.21ZM560.2,1105.47c234.55.08,424.46-189.41,424.76-423.85.3-235.31-191.28-426.41-427.25-424.88-232,1.51-421.34,190.78-421.22,424.36C136.6,915.27,326.2,1105.39,560.2,1105.47Z" transform="translate(-83.93 -201.96)"/><path class="cls-1" d="M535.11,517.33c-2.3,1.24-4.71,2.32-6.89,3.75-28.79,18.75-60.81,29.12-94,36.63-13.64,3.08-27.47,5.76-40.64,10.29-15.38,5.28-17,5.78-19.45,21.15a27.25,27.25,0,0,1-3,8.4c-4,7.37-4.73,15.17-3.87,23.28.17,1.66.48,3.3.62,5,.6,7.31,4,15.13-4.63,21.2-9.77-5.14-18.87-11.88-23.34-23.15a169.92,169.92,0,0,1-7.09-22.37,11.43,11.43,0,0,1,1.68-8.62c8.38-10.77,17-21.4,26.11-31.54a60.53,60.53,0,0,1,14.68-11.77c25.55-14.68,51.06-29.47,77.13-43.19a499.54,499.54,0,0,1,97.67-39.23c1.6-.45,3.21-.91,4.83-1.28,10.65-2.41,14.47-.26,18.53,9.75,16.17,39.87,25.93,81.5,33.51,123.66,1.36,7.58,3.93,12.71,9.89,17.59,16.55,13.55,26,31.42,28.23,52.75.45,4.18,3.29,5.36,6,7.19,16.79,11.42,33.64,22.74,50.26,34.39,4.46,3.13,8.14,7.37,12.29,11a72.3,72.3,0,0,0,6.09,4.27c0-6.77.27-12.56,0-18.33-1.61-29.19,4-57.34,11.86-85.22,4.17-14.91,8.24-29.85,12-44.88,2.64-10.65,2.16-20.52-9-26.89a16.54,16.54,0,0,1-5.36-5.8c-4.8-7.95-11.94-12.79-20.3-16.25-5.06-2.1-10.31-4-14.89-6.88-2.45-1.54-3.66-5-4.62-6.44.77-3.28.83-5.47,1.79-7.13,1.34-2.32,2.95-5.09,5.17-6.14a94.13,94.13,0,0,1,16-5.64c1.83-.5,4.34.22,6.15,1.14,5.28,2.7,10.24,6.05,15.58,8.59,2.77,1.31,6.09,1.54,9.18,2.09,4,.72,6.36,2.72,7.81,6.7,3.91,10.8,8.17,21.48,12.47,32.13a66.62,66.62,0,0,1,5.13,25.77c-.26,35,.39,70-.51,104.93-.78,30.2-5.54,60-12.53,89.44-2.35,9.89-7.14,12.53-18.17,11.31-38.45-4.25-75.57-14.36-112.25-26-10.42-3.3-18.55-3.06-28.8,1.68-26.09,12.07-52.26,9.62-76.83-5.57-4-2.48-7.07-2.78-11.36-.89-19.1,8.42-38.77,15.15-59.39,18.83a25.18,25.18,0,0,0-4.27,1.35,25.93,25.93,0,0,0-2.77,1.54c6.12,4.19,11.65,8.08,17.29,11.82,21.6,14.32,39.58,32.39,55.79,52.52,11.7,14.51,24.19,28.4,36.61,42.31,7.2,8.07,15.71,12.15,26.59,6.58a14.78,14.78,0,0,1,7.3-1.21c9.48.57,17.66-2.66,25.27-7.88,1.93-1.32,3.81-2.7,5.75-4,5.39-3.58,10.56-8.09,18.38-3.94-.45,12.12-2.36,24-11.55,33.55-4.86,5-9.65,10.19-15,14.64-2.24,1.85-6.14,3.2-8.89,2.68-13.41-2.51-26.73-5.58-40-8.8a41.46,41.46,0,0,1-12.5-4.85c-40.34-25.7-80.07-52.32-115.54-84.62-14.75-13.44-28.53-28-42.36-42.38-8.85-9.23-8-13.92.5-23.45,26.53-29.79,57.81-54.13,88.9-78.74a9.83,9.83,0,0,0,3.41-5.57c4.09-26.54,17.54-46.74,40.6-60.44,3-1.79,3.18-4.17,3.46-7.07,2-21,4-42.07,6.4-63.06.78-6.67,3-13.18,4.53-19.76ZM642.86,679.19c-.06-43.58-35.88-79.42-79.26-79.3a79.62,79.62,0,0,0-79.35,79.71c-.07,42.52,34.92,79.94,81.74,79.24C607.6,758.22,642.92,722.11,642.86,679.19Zm-286.52-66.1-8.87,4.43L358.93,636l.66-.23C358.52,628.3,357.46,620.88,356.34,613.09ZM615.46,894,626,876.2l-.71-.44-17.49,12.29Zm90.37-376.59,16.06,6.32c.28-2-.07-3.88-1-4.19C716.17,517.89,711.85,512.94,705.83,517.38Z" transform="translate(-83.93 -201.96)"/><path class="cls-1" d="M314.43,519.47c-.32,10.67-3.14,20.62-9.47,29.41-6.13,8.5-12.28,17-18.54,25.38-3.63,4.87-4.92,5.07-9.81,1.68q-37.47-26-74.87-52.19c-4.61-3.23-4.81-4.77-1.48-9.33,6.47-8.86,12.63-18,19.59-26.46,22.9-27.86,63.94-26.63,85.24,2.42C311.38,499,314.08,508.83,314.43,519.47Zm-37.55,27.82c2.93-4,5.42-7.29,7.84-10.65,9-12.5,8-27.63-2.55-37.66s-27.09-11.26-38.36-1.84c-5.49,4.6-9.56,10.89-14.65,16.86Z" transform="translate(-83.93 -201.96)"/><path class="cls-1" d="M572.11,363.78c8.76,11,17.3,21.62,25.64,32.38,1.28,1.65,2.84,4.77,2.15,5.87-1,1.64-3.92,2.79-6.09,2.93C577,406.09,577,406,566.47,392.82c-5.92-7.42-11.74-14.91-17.79-22.22-1.11-1.34-3.12-2-4.71-2.9-.57,1.69-1.58,3.36-1.64,5.06-.17,5.16,0,10.32.1,15.48.06,3.53-1.69,5.24-5.14,5.32-3.66.08-7.33,0-11,.22-4.64.22-6.62-1.86-6.62-6.51,0-11-.27-22-.41-33-.23-17.31-.35-34.63-.75-51.95-.12-4.87,1.58-7.07,6.55-7,10.65.07,21.32-.48,32-.08a36.86,36.86,0,0,1,34.36,27.25c3.93,14.83-2.31,30-16.18,39.24Zm-30.52-46.3c0,5.07-.1,9.36,0,13.65.13,4.45-1.17,10.88,1.17,12.84,2.76,2.3,8.76.87,13.35.8a13.51,13.51,0,0,0,13.64-13,13.75,13.75,0,0,0-13.14-14.21C551.85,317.27,547,317.48,541.59,317.48Z" transform="translate(-83.93 -201.96)"/><path class="cls-1" d="M290.59,400.81a15.33,15.33,0,0,1,2.28-3.29c4.26-3.7,8.73-7.17,13-10.88,3.09-2.7,5.86-1.37,8.65.3q25.23,15.18,50.45,30.39c10.83,6.53,21.71,13,32.48,19.58,5.65,3.46,5.65,5.85.4,10.07-1.95,1.56-3.83,3.2-5.77,4.77-6.8,5.52-6.85,5.59-14.49.85-2.47-1.54-4.46-2.37-7.08-.13-7.32,6.27-14.74,12.46-22.32,18.42-2.6,2.05-2.74,3.81-1.54,6.7,3.6,8.64,3.47,8.69-4.08,14.74-1.95,1.56-3.87,3.15-5.82,4.7-4.34,3.44-6.94,2.83-9.08-2.45-5.2-12.8-10.24-25.65-15.36-38.47q-10.08-25.26-20.17-50.52C291.57,404.21,291.2,402.75,290.59,400.81Zm33.57,20.4c2.37,5.94,4.19,10.53,6,15.11s3.69,9.05,5.75,14.1l15.84-13.05c-8.26-5-15.77-9.54-23.29-14.05C327.52,422.74,326.45,422.32,324.16,421.21Z" transform="translate(-83.93 -201.96)"/><path class="cls-1" d="M652.41,403.92c-28.07,0-50.49-21.95-50.37-49.25.12-27,22.6-48.64,50.48-48.64,27.72,0,50,21.8,50.12,49C702.75,381.88,680.06,404,652.41,403.92Zm-.1-22.16c15.18.16,27.68-11.88,27.78-26.78.1-14.74-12.25-26.85-27.57-27A27.46,27.46,0,0,0,625,354.54C624.68,369.26,637.08,381.6,652.31,381.76Z" transform="translate(-83.93 -201.96)"/><path class="cls-1" d="M877.59,576.61c-27.94.16-51.54-23.11-51.61-50.9a47.84,47.84,0,0,1,48.08-47.85c28.16-.13,51.65,22.85,51.82,50.67C926,555.27,904.77,576.45,877.59,576.61ZM875,500.26a26.2,26.2,0,0,0-26.27,26.35c0,15.29,13.12,27.89,28.77,27.69a26.25,26.25,0,0,0,26.09-26C903.6,513,890.44,500.14,875,500.26Z" transform="translate(-83.93 -201.96)"/><path class="cls-1" d="M823.41,400.24c22.65.23,42.56,23.22,38.62,44.59a4.67,4.67,0,0,1-.3,1.46c-2,3.3-4.13,6.56-6.21,9.83-2.82-1.79-5.94-3.25-8.38-5.47-4.07-3.71-7.53-7.24-7.67-14s-6.42-11.34-12.83-13.86c-1.81-.71-5.26-.35-6.31.9a7.71,7.71,0,0,0-.8,6.74c2.55,5.76,5.84,11.2,8.85,16.75,3.37,6.21,6,12.56,5.76,19.87A26.8,26.8,0,0,1,804,493.1c-17.09-2.1-32.49-15.78-36.17-32.18a27.73,27.73,0,0,1,2.88-20.29c2.4-4.26,5.19-4.56,8.75-1.14,2,2,3.92,4.1,6.07,5.93,3.08,2.62,4.73,5.45,4.48,9.85-.34,6,7.58,14.11,13.89,15.25,5.86,1.06,8.85-2.16,6.7-7.79-1.54-4-4-7.66-6-11.47-4-7.46-8.75-14.54-8.76-23.56C795.84,411.24,806.92,400.07,823.41,400.24Z" transform="translate(-83.93 -201.96)"/><path class="cls-1" d="M750.87,345.3c15.42,0,32.73,11.53,38.2,25.47a27.47,27.47,0,0,1,.8,18.58c-1.13,3.7-3.54,4.78-6.88,3a137.93,137.93,0,0,1-12-7.09,7.29,7.29,0,0,1-2.38-4.12c-1.79-7.37-11.11-14.37-18.55-13.73-4.95.42-6.71,3.23-4.66,7.73a16.31,16.31,0,0,0,2.84,4c4.45,4.95,9,9.8,13.48,14.72,8.62,9.48,11.22,22,6.38,31.86-5.83,11.86-16,16.88-28.65,15.89-15.18-1.18-27.17-8.49-34.91-21.82A26.54,26.54,0,0,1,702,398.12c1.29-4.27,3.53-5.3,7.48-3.17a109.27,109.27,0,0,1,11.1,6.69,8.15,8.15,0,0,1,2.76,4.39c1.72,6.56,9.82,13.49,16.73,13.42,2.21,0,5.61-1,6.3-2.58.86-1.91.26-5.44-1.11-7.19-3.87-5-8.78-9.13-12.65-14.1-3.64-4.66-7.65-9.55-9.45-15C717.06,362,730.55,345.31,750.87,345.3Z" transform="translate(-83.93 -201.96)"/><path class="cls-1" d="M426.48,401.25c7.13-3.7,13.89-7.19,20.63-10.72,4.28-2.23,8.53-4.52,12.8-6.78,3.73-2,6.63-1.44,8.64,2.6,1.86,3.72,4,7.31,5.88,11,1.48,2.88.7,5.18-2.16,6.68q-25.47,13.28-50.94,26.51c-3.6,1.87-5.81.46-7.64-2.92-10.45-19.32-21-38.57-31.56-57.85C378,362.18,374,354.5,369.71,347c-2.25-3.95-1.42-6.54,2.52-8.49,3.43-1.69,6.88-3.38,10.19-5.29,4-2.3,6.5-.94,8.5,2.79,6,11.14,12,22.23,18.09,33.33C414.73,379.82,420.48,390.3,426.48,401.25Z" transform="translate(-83.93 -201.96)"/><path class="cls-1" d="M539.79,1022.32l15.05,1v8H538.77c-.38,8.09-.74,15.78-1.11,23.88l23.73,1.2c1.46,8.25,1.35,8.51-6.28,8.29-8.61-.23-17.22-.72-25.58-1.09,0-9.74-.22-19.17.05-28.59.4-13.64,1.29-27.26,1.66-40.9.1-3.67,1-5,4.84-4.76,9.42.61,18.87.86,28.19,1.24,1.28,8.3,1,8.64-6.43,8.3-4.82-.22-9.65-.53-14.47-.36-1.22.05-3.38,1.74-3.42,2.74C539.64,1008.06,539.79,1014.86,539.79,1022.32Zm-4.54-28.45c.17-.29-.13,0-.15.27q-1.46,31.43-2.89,62.85c-.14,3.07,1.68,3.53,4.12,3.61,6.49.2,13,.51,19.47.72a6.24,6.24,0,0,0,1.92-.59A87.17,87.17,0,0,0,539,1058.8c-4.38,0-5.34-1.71-4.94-5.71.58-5.62.64-11.3.93-16.95.14-2.74.29-5.47.44-8.43h15.67l0-1.24-14.63-1V995.25h23.82l.05-1.38Z" transform="translate(-83.93 -201.96)"/><path class="cls-1" d="M795.87,910.54l-5.43,5.11c-1.24-1.17-2.18-2.07-3.15-2.95-3-2.72-6.36-3.58-10-1.48a8.08,8.08,0,0,0-4.31,8.81c.64,4.06,3.34,6.47,7.29,7.21,10.3,1.92,20.61,3.71,30.93,5.51,11.68,2,18.16,11.64,14.73,22-2,6.18-6.27,10.14-12.79,11.23-7.48,1.24-13.26-1.59-17.81-8l5.52-5.24c1.23,1.14,2.14,2.06,3.13,2.9,3.08,2.61,6.93,3.74,10,1.26a12.64,12.64,0,0,0,4.38-8.13c.25-4.24-3.06-6.81-7.26-7.59-10.62-2-21.28-3.73-31.89-5.76-9.16-1.76-14.61-8.26-14.53-17a16.57,16.57,0,0,1,13.55-16.24C784.88,900.88,790.71,903.56,795.87,910.54Zm-5.16-.83a13.21,13.21,0,0,0-16.52-2.47A13.7,13.7,0,0,0,768.61,923c2.22,6.44,7.37,8.54,13.42,9.58q15,2.6,30,5.37a11.89,11.89,0,0,1,4.83,21.39c-4.23,2.94-8.71,2.93-13.15.29-.9-.53-1.76-1.11-2.64-1.67a5.85,5.85,0,0,0,3.09,3.58,12.9,12.9,0,0,0,14.13-1.29c4.48-3.3,5.88-8.11,4.78-13.35s-4.37-9-9.86-10.12c-11.57-2.31-23.23-4.21-34.75-6.74-6.23-1.36-9.33-6.43-8.77-12.68.48-5.51,4.72-10.27,10.38-10.29C783.58,907,787.13,908.75,790.71,909.71Z" transform="translate(-83.93 -201.96)"/><path class="cls-1" d="M950.92,673.38a17,17,0,1,1-16.7-17A16.94,16.94,0,0,1,950.92,673.38Z" transform="translate(-83.93 -201.96)"/><path class="cls-1" d="M190.53,690.46a17,17,0,0,1,0-34.05,17,17,0,1,1,0,34.05Z" transform="translate(-83.93 -201.96)"/><path class="cls-1" d="M384.91,945.06,365.8,931.38l4.78-7.11,29.13,20.42c-4.08,3.65-7.32,7.37-11.3,9.94-14,9-28.22,17.66-42.35,26.45-1.39.87-2.71,1.87-4.47,3.08L360.93,998l-4.88,7.1-29-20.42c3.79-3.49,6.74-7.06,10.44-9.46,14.23-9.26,28.7-18.14,43.07-27.18C381.92,947.22,383.21,946.24,384.91,945.06Zm-52.76,39.11,22.78,15.94,1-1.37L335.35,984c1.91-1.31,3.23-2.27,4.62-3.13,15.69-9.78,31.43-19.49,47.08-29.33a93.27,93.27,0,0,0,7.71-6.09l-23-16.09-1,1.39,20.33,14.44c-1,.76-1.44,1.2-2,1.54C372.05,957.45,355,968.16,338,979,336,980.24,334.43,982.12,332.15,984.17Z" transform="translate(-83.93 -201.96)"/><path class="cls-1" d="M315.06,880.75l6.2-5.85c7.74,8.64,15.24,17,23.6,26.3-3.79,2.36-6.94,5.15-10.62,6.47-15.67,5.63-31.49,10.82-47.26,16.18-2.32.79-4.62,1.65-7.61,2.72l16.49,18.8a27.08,27.08,0,0,1-4.67,2.92c-1.22.46-3.4.72-4,0-7.13-7.65-14-15.51-21.79-24.19,3.92-2.4,7.11-5.14,10.81-6.49,16.27-5.93,32.69-11.46,49.05-17.14,1.54-.54,3.06-1.16,5.32-2Zm6.3-.55-1.24,1.08,16.46,18.91c-20.31,7-39.64,13.7-58.93,20.48-2.38.84-4.54,2.31-7.46,3.83l18.68,20.66,1.22-1.11-16.48-18.78a23.31,23.31,0,0,1,2.69-1.38c18.43-6.25,36.88-12.43,55.27-18.78,2.78-1,5.3-2.67,8.41-4.29Z" transform="translate(-83.93 -201.96)"/><path class="cls-1" d="M925.43,798c-1.65,7.94-1.71,7.94-8.75,6.87-4.38-.67-8.79-1.16-14-1.84,1.14,6.76,2,12.79,3.26,18.73.25,1.19,1.87,2.23,3.06,3,6.08,4.18,6.1,4.15,1.86,11.36-5.12-3.32-10.25-6.59-15.34-9.93-14.89-9.76-29.72-19.61-44.68-29.26-2.62-1.69-3.25-3.21-1.92-6,1.12-2.4,1.82-4.28,5.29-3.76,23,3.48,46.07,6.74,69.11,10.09A13.46,13.46,0,0,1,925.43,798Zm-16.38,32.92.75-.85c-2.38-2.12-6.19-3.87-6.87-6.44-2.12-7.91-3-16.14-4.51-24.8l21.67,3c-.45-1.35-1.1-1.81-1.81-1.92q-31-4.53-62.13-9c-1.13-.16-2.38.53-3.58.82.66,1.16,1,2.74,2,3.42,8.24,5.61,16.57,11.09,24.91,16.55Q894.25,821.32,909.05,830.88Z" transform="translate(-83.93 -201.96)"/><path class="cls-1" d="M765.93,1004.72c-5.64,5-6.08,5-10.6.1L745.43,994c-3.37,5.76-6.55,10.93-9.4,16.28-.58,1.08-.14,2.9.24,4.27,1.9,7,2,7-5.72,10.46-1.13-3.65-2.24-7.21-3.32-10.79-5.93-19.57-11.75-39.18-17.88-58.69-1.16-3.68,1.31-4.19,3.23-5.54s3.69-1.51,5.57.61q23.54,26.46,47.22,52.8A4.8,4.8,0,0,1,765.93,1004.72Zm-6.28-.27.85-.73a4.39,4.39,0,0,0-.52-1.25Q738.64,978.7,717.23,955c-.76-.84-2.14-1.11-3.23-1.64-.16,1.31-.75,2.76-.4,3.93,5,16.9,10.11,33.77,15.22,50.64,1.17,3.87,2.45,7.7,3.68,11.54l1.29-.35a46.62,46.62,0,0,1-1.21-5c-.22-1.57-.68-3.51,0-4.73,3.82-6.94,7.94-13.7,12.28-21.08Z" transform="translate(-83.93 -201.96)"/><path class="cls-1" d="M441.29,1045.39c-8.36-1.78-8.3-1.77-7-9.41.72-4.2,1.23-8.44,1.95-13.51-9.75,2.55-21-.83-25.38,11.72l-8.11-3.36c4-6.1,7.77-11.88,11.61-17.62,9.33-14,18.82-27.86,28-42,2.18-3.36,4.19-3.1,7.42-2,3.42,1.19,3,3.15,2.56,5.82-3.54,22.51-7,45-10.44,67.57C441.77,1043.48,441.54,1044.27,441.29,1045.39Zm-4.11-5.36,1.37.2c.17-.73.39-1.46.51-2.2,3.12-20.18,6.27-40.35,9.27-60.54.25-1.65-.52-3.46-.81-5.19-1.27,1.09-2.85,2-3.75,3.31q-17.06,25.17-33.91,50.45a21.44,21.44,0,0,0-1.34,2.82c2.76-2,4.55-5.72,7.12-6.37,7.79-2,15.88-2.72,24.62-4.06Z" transform="translate(-83.93 -201.96)"/><path class="cls-1" d="M879.92,893c-1.68,2.52-3,4.57-4.78,7.21l-54.37-36.81-7.36,10.25-7.11-4.75,18.6-27.42,7.16,4.76-6.39,9.87Zm-60.11-34.39,54,36.58,1-1.47-53.71-36.6,5.8-9.8-1.28-.75L811.3,867.63l1.35,1Z" transform="translate(-83.93 -201.96)"/><path class="cls-1" d="M649.7,1054.77c-7-24.31-13.65-47.74-20.55-71.9,6.83-1.75,13.13-3.84,19.6-4.88A13.3,13.3,0,0,1,662,983.41c5.06,7.26,8.07,15.37,5.62,24.38-.69,2.51-.35,3.66,1.54,5.4,6.73,6.2,8.43,14.52,8.18,23.16a13.13,13.13,0,0,1-8,11.89C663.22,1050.91,656.6,1052.54,649.7,1054.77Zm12.18-42.51c4.26-9.28,2.86-22.18-3.19-27.49-8.42-7.41-16.48-1.14-25.29.59,6.27,21.9,12.36,43.22,18.64,65.16,8.37-3.44,18.69-2.27,21.74-13.15C676,1029.43,670.61,1018.32,661.88,1012.26Z" transform="translate(-83.93 -201.96)"/><path class="cls-1" d="M268,774c2.31,7.08,4.77,13.73,6.52,20.56.56,2.16-.41,5-1.33,7.21-4.76,11.58-23.65,16.76-33.65,9.25a126,126,0,0,1-11.16-9.18c-2.49-2.36-4.68-2.28-7.6-1.09-6.29,2.56-12.71,4.81-19,7.15-4.59-6.69-4.33-7.53,2.77-10.19Q232.1,787.4,259.63,777C262.09,776.11,264.58,775.26,268,774ZM203,801.9l.53,1.71c5.82-2.13,11.78-4,17.43-6.51,3.63-1.63,6.12-1,8.9,1.51,3.82,3.45,7.85,6.68,11.92,9.83,7.85,6.11,25.05,1.16,28.52-8.18a8.16,8.16,0,0,0,.63-4.36c-1.36-5.72-3-11.37-4.71-17.62Z" transform="translate(-83.93 -201.96)"/><path class="cls-1" d="M296.15,837.89l4.62,7.31-19.71,11.89q-19,11.5-38,23c-6.58,4-6.66,3.91-10.15-4.07Zm-.67,6.54-1-1.59-56.69,34.23.95,1.57Z" transform="translate(-83.93 -201.96)"/><path class="cls-1" d="M566.48,685.4l4.55-2-.82-1c1.48-1.61,2.65-3.89,4.47-4.72,11.68-5.27,23.5-10.22,35.27-15.27,3.65-1.57,7.29-3.18,11-4.71,9.35-3.9,17.13.46,17.85,10.46a167.77,167.77,0,0,1,.06,22c-.57,9.2-7.24,13.64-16.09,10.88-9.68-3-19.23-6.5-28.84-9.78a10.84,10.84,0,0,0-5.9-.77c9.15,3.62,18.25,7.4,27.48,10.82,13.9,5.14,16.44,15.7,6.14,26.37-3.47,3.59-7,7.15-10.56,10.63-8.34,8.12-13.42,8.16-21.9-.14-.17,1.52-.27,2.72-.45,3.91-.9,6.11-5.71,10.43-12.57,10.71-7.32.31-14.66.41-22,.16-10.65-.36-16.61-9.68-12.75-19.67,2.39-6.17,5-12.24,6.6-18.79-2.82,5.84-5.79,11.61-8.41,17.53-5.43,12.24-16.25,14-25.14,4.09-4-4.46-8.47-8.51-12.28-13.11-7.08-8.56-4.37-17.39,6.1-21q14.61-5.06,29.19-10.23a5.88,5.88,0,0,0,3.11-2.19c-10.65,3.59-21.37,7-31.93,10.83-12.74,4.61-19.75-.11-19.77-13.68,0-5.49-.17-11,.07-16.48.49-11.37,7.75-16.19,18.32-11.91,15.55,6.3,31,13,46.42,19.48,3.13,1.32,5.49,2.93,1.87,6.86l7,.38c-.67-3.19-1.11-5.3-1.55-7.42l7.07-.17C567.59,679.92,567.08,682.43,566.48,685.4Zm-38.21,3.22c-.07-.55-.15-1.1-.23-1.65-6.75-1.15-14.81.27-18.34,4Zm-10.36,34.83,1.81,1.6L532,711.25l-1.82-1.61ZM603,734.77l1.74-1.61q-6-7.1-12-14.18l-1.76,1.5Q597,727.62,603,734.77Zm9.75-25.72c.35-.74.69-1.49,1-2.23l-16.58-8.55-1,2Zm-108.4-41.12-.3,2.53L522,673l.35-2.37Zm94,12.66-.29-2.52-18.3,2.16.26,2.28Zm-39.12,30.88,2.35.28,2.43-16.69-2.13-.32Q560.6,703.11,559.28,711.47ZM524.6,676c-.12.79-.25,1.57-.38,2.36l17.46,2.72.36-2.21Zm23.14,31.59-2-1.14-8.87,15.47,1.86,1.07Zm13.58,17-2.4-.22-1.62,17.86,2.32.22Q560.48,733.51,561.32,724.59Zm43.19-36.73,0,1.31h18.09l0-1.31Zm15.38-15-.3-2.18-16.79,2.3.31,2.2Zm-47.82,60.4,2.43-.25-2.23-17.26-2.09.27Zm20.14-27.47,1.53-2-10.22-7.19c-.41.57-.83,1.14-1.24,1.72Zm-52.65-3,1.59,1.73L550.9,696l-1.49-1.71Z" transform="translate(-83.93 -201.96)"/><path class="cls-1" d="M559.78,669.38c.09,1,.23,2,.27,3,.16,3.92-1.59,5.35-5.23,3.69q-13.83-6.3-27.57-12.78c-6-2.84-11.93-5.86-17.93-8.72-11.15-5.3-12.62-13.65-3.86-22.44,4.35-4.35,8.65-8.76,13.14-13,7.17-6.7,15.77-5.17,19.94,3.79,6.38,13.71,12.39,27.58,18.59,41.37.81,1.8,1.85,3.49,2.79,5.23Zm-27.66-31.91L530.43,639q6.15,6.86,12.29,13.73l1.74-1.57Zm-10.78,6.58-1.4,1.92,14.42,9.84,1.23-1.81Zm32.07,29.05,1.58-1.8-13.7-11.39L540,661.49Z" transform="translate(-83.93 -201.96)"/><path class="cls-1" d="M559.92,669.53q-8-21.66-16-43.34a30.35,30.35,0,0,1-1.91-6.65c-1-7.76,3.27-13.09,11.08-13.36a175.34,175.34,0,0,1,20.88.6c11.05.94,14.58,5.76,12.71,16.57-.2,1.14-.61,2.24-.91,3.36l-5.37,14-10.47,25.18a20.94,20.94,0,0,1-1.76,4.11,38.71,38.71,0,0,1-3.78,4.14c-1.15-1.25-2.3-2.51-3.47-3.75a14.61,14.61,0,0,0-1.09-1Zm5.3-30.37-1.5.18v18.51h1.5Zm-6.63-9.62,1.55.05V611.45h-1.55Zm14.13,7.78,1.44.21v-18h-1.44Z" transform="translate(-83.93 -201.96)"/><path class="cls-1" d="M580.35,640.68l5.37-14a54.42,54.42,0,0,1,3.73-7c4.33-6,11.43-6.94,17-2.15s11.13,10,16.3,15.38c6.37,6.66,5.47,14.76-2.58,19.16-15,8.19-30.33,15.8-45.56,23.57-1.39.7-3.07.83-5.7,1.5.47-2.94.51-5,1.15-6.93C573.38,660.36,576.89,650.53,580.35,640.68Zm-5.06,27.91,2,1.5,11-14.54-2-1.47Zm9.84-20.53,2,1.61,10.67-15-2-1.39Zm12.62,7.76,1.87,1.76,12.49-13.68-1.74-1.6Q604.05,649.05,597.75,655.82Z" transform="translate(-83.93 -201.96)"/><path class="cls-1" d="M855.78,792.55c12.76,1.87,25.53,3.69,38.26,5.72a4.24,4.24,0,0,1,2.73,2.77c1.33,6.83,2.35,13.72,3.74,22.24l-45.22-29.59Zm40,23.54c-.81-5.18-1.38-9.17-2.13-13.13a2.44,2.44,0,0,0-1.65-1.55c-7-1.13-14.07-2.14-21.11-3.18-.13.45-.27.9-.4,1.34Z" transform="translate(-83.93 -201.96)"/><path class="cls-1" d="M715.84,955.93c8.58,9.49,17.19,18.94,25.67,28.52.8.91,1.4,3,.92,3.86-3.47,6.38-7.24,12.59-11.64,20.1-5.55-18.17-10.7-35.06-15.85-51.95Zm15.9,44c2.69-4.54,4.68-7.75,6.48-11a3,3,0,0,0,.09-2.64c-4.76-5.52-9.64-10.91-14.5-16.34l-1,.67C725.62,979.82,728.44,989.09,731.74,999.91Z" transform="translate(-83.93 -201.96)"/><path class="cls-1" d="M447.06,975.79c-2,12.59-3.89,25.18-5.95,37.76-.18,1.1-1.09,2.82-1.89,3-7.26,1.31-14.56,2.33-23.33,3.66l30-44.81Zm-5.76,14.69-1.09-.49-17.1,25.65c5-.76,8.78-1.19,12.46-2a3.94,3.94,0,0,0,2.4-2.54C439.22,1004.26,440.22,997.36,441.3,990.48Z" transform="translate(-83.93 -201.96)"/><path class="cls-1" d="M646.34,1023.77l-10.62-37.14c4.43-1.17,8.5-2.57,12.68-3.22a11.59,11.59,0,0,1,6.72,1.14c7.83,4.06,10.43,19.91,4.36,26.32C655.41,1015.17,651,1019.19,646.34,1023.77Zm1.84-6c3.59-3.67,6.44-6.41,9.08-9.33,4.26-4.74,2-17.74-3.68-20.77a9.17,9.17,0,0,0-5.23-.89,67.29,67.29,0,0,0-8.41,2.33C642.64,998.48,645.23,1007.5,648.18,1017.75Z" transform="translate(-83.93 -201.96)"/><path class="cls-1" d="M672.28,1034.36c.57,4.82-2.64,8.47-7.32,10.15-3.57,1.29-7.27,2.19-11.63,3.48-2-6.82-3.87-13-5.47-19.23a5.27,5.27,0,0,1,1.06-3.9,78.56,78.56,0,0,1,6.09-6.57c4.41-4.47,9.64-4.43,12.61,1.05m-12.14,23.86c12.33-1,15.13-4.93,11.9-16.07-.23-.79-.42-1.61-.68-2.39-1.12-3.3-2.67-6.39-6.79-6-2.45.25-8.88,8.82-8.37,10.73C652.78,1034.11,654.17,1038.69,655.48,1043.2Z" transform="translate(-83.93 -201.96)"/><path class="cls-1" d="M228.32,795a15,15,0,0,1,2-1.33c11.2-4.21,22.41-8.4,34.49-12.91,1.5,4.89,3.15,9.5,4.26,14.23.38,1.6-.27,3.66-1,5.27-3.51,7.86-18.78,11.68-25.53,6.39C237.87,803,233.34,799.13,228.32,795Zm34.22-9.7-27.87,10.45c3.92,3.27,7,6.08,10.3,8.54,4.9,3.63,17.69.14,20.11-5.51a9.16,9.16,0,0,0,.48-5.3A63.56,63.56,0,0,0,262.54,785.31Z" transform="translate(-83.93 -201.96)"/></svg>