<?xml version="1.0" encoding="UTF-8" standalone="no"?>
<!-- Created with Inkscape (http://www.inkscape.org/) -->

<svg
   width="210mm"
   height="210mm"
   viewBox="0 0 210 210"
   version="1.1"
   id="svg1"
   sodipodi:docname="insta.svg"
   inkscape:version="1.3 (0e150ed6c4, 2023-07-21)"
   xmlns:inkscape="http://www.inkscape.org/namespaces/inkscape"
   xmlns:sodipodi="http://sodipodi.sourceforge.net/DTD/sodipodi-0.dtd"
   xmlns="http://www.w3.org/2000/svg"
   xmlns:svg="http://www.w3.org/2000/svg">
  <sodipodi:namedview
     id="namedview1"
     pagecolor="#ffffff"
     bordercolor="#666666"
     borderopacity="1.0"
     inkscape:showpageshadow="2"
     inkscape:pageopacity="0.0"
     inkscape:pagecheckerboard="0"
     inkscape:deskcolor="#d1d1d1"
     inkscape:document-units="mm"
     inkscape:zoom="0.49575348"
     inkscape:cx="768.52714"
     inkscape:cy="640.43928"
     inkscape:window-width="1920"
     inkscape:window-height="1001"
     inkscape:window-x="-9"
     inkscape:window-y="-9"
     inkscape:window-maximized="1"
     inkscape:current-layer="layer1" />
  <defs
     id="defs1" />
  <g
     inkscape:label="Calque 1"
     inkscape:groupmode="layer"
     id="layer1">
    <g
       id="g1"
       style="display:inline"
       transform="translate(11.497727,6.0719065)"
       inkscape:label="insta">
      <path
         class="cls-1"
         d="m 93.501576,50.047809 c 15.911034,0 17.791044,0 24.072964,0.367409 a 33.472928,33.472928 0 0 1 11.09647,2.017602 18.34133,18.34133 0 0 1 6.83216,4.585276 18.34133,18.34133 0 0 1 4.58545,6.832161 33.472928,33.472928 0 0 1 2.01743,11.09647 c 0.32061,6.281922 0.36741,8.161928 0.36741,24.072951 0,15.911212 0,17.791212 -0.36741,24.073142 a 33.472928,33.472928 0 0 1 -2.01743,11.09647 20.221317,20.221317 0 0 1 -11.32594,11.32576 33.472928,33.472928 0 0 1 -11.09647,2.0176 c -6.28192,0.32061 -8.16192,0.3674 -24.072954,0.3674 -15.91103,0 -17.79104,0 -24.07296,-0.3674 a 33.472928,33.472928 0 0 1 -11.23407,-2.10928 20.221317,20.221317 0 0 1 -11.32576,-11.32576 33.472928,33.472928 0 0 1 -2.01761,-11.09665 c -0.41246,-6.28175 -0.41246,-8.16175 -0.41246,-24.072952 0,-15.911037 0,-17.791034 0.36741,-24.072956 a 33.472928,33.472928 0 0 1 2.01742,-11.096479 18.34133,18.34133 0 0 1 4.58546,-6.832161 18.34133,18.34133 0 0 1 6.83198,-4.585267 33.472928,33.472928 0 0 1 11.09665,-1.925927 c 6.28192,-0.320613 8.16175,-0.367409 24.07295,-0.367409 m 0,-10.729592 c -16.18624,0 -18.34127,0 -24.57744,0.367409 a 43.881634,43.881634 0 0 0 -14.48959,2.7512 30.538316,30.538316 0 0 0 -17.42433,17.424147 43.881634,43.881634 0 0 0 -2.75119,14.489762 c -0.32061,6.373598 -0.36741,8.391032 -0.36741,24.577273 0,16.186242 0,18.341452 0.36741,24.577442 a 43.881634,43.881634 0 0 0 2.75119,14.48959 30.538316,30.538316 0 0 0 17.42433,17.42433 43.881634,43.881634 0 0 0 14.48959,2.7512 c 6.3736,0.32061 8.3912,0.3674 24.57744,0.3674 16.186244,0 18.341274,0 24.577444,-0.3674 a 43.881634,43.881634 0 0 0 14.4896,-2.7512 30.538316,30.538316 0 0 0 17.42432,-17.42433 43.881634,43.881634 0 0 0 2.7512,-14.48959 c 0.32061,-6.3736 0.36741,-8.3912 0.36741,-24.577442 0,-16.186241 0,-18.341273 -0.36741,-24.577273 a 43.881634,43.881634 0 0 0 -2.7512,-14.489762 30.538316,30.538316 0 0 0 -17.42432,-17.424147 43.881634,43.881634 0 0 0 -14.67313,-2.7512 c -6.37359,-0.320613 -8.3912,-0.367409 -24.577264,-0.367409"
         id="path2"
         style="display:inline;fill:#606256;fill-opacity:1;stroke-width:4.58533" />
      <path
         class="cls-1"
         d="M 93.501576,68.297582 A 30.630022,30.630022 0 1 0 124.13166,98.927488 30.630022,30.630022 0 0 0 93.501576,68.297582 m 0,50.438538 A 19.85449,19.85449 0 1 1 113.31022,98.927488 19.85449,19.85449 0 0 1 93.455646,118.78205"
         id="path3"
         style="display:inline;fill:#606256;fill-opacity:1;stroke-width:4.58533" />
      <path
         class="cls-1"
         d="m 132.47694,67.105245 a 7.1531188,7.1531188 0 1 1 -7.15312,-7.153118 7.1531188,7.1531188 0 0 1 7.15312,7.153118"
         id="path4"
         style="display:inline;fill:#606256;fill-opacity:1;stroke-width:4.58533" />
    </g>
  </g>
</svg>
