<?xml version="1.0" encoding="UTF-8" standalone="no"?>
<!-- Created with Inkscape (http://www.inkscape.org/) -->

<svg
   width="210mm"
   height="210mm"
   viewBox="0 0 210 210"
   version="1.1"
   id="svg1"
   sodipodi:docname="trip.svg"
   inkscape:version="1.3 (0e150ed6c4, 2023-07-21)"
   xmlns:inkscape="http://www.inkscape.org/namespaces/inkscape"
   xmlns:sodipodi="http://sodipodi.sourceforge.net/DTD/sodipodi-0.dtd"
   xmlns="http://www.w3.org/2000/svg"
   xmlns:svg="http://www.w3.org/2000/svg">
  <sodipodi:namedview
     id="namedview1"
     pagecolor="#ffffff"
     bordercolor="#666666"
     borderopacity="1.0"
     inkscape:showpageshadow="2"
     inkscape:pageopacity="0.0"
     inkscape:pagecheckerboard="0"
     inkscape:deskcolor="#d1d1d1"
     inkscape:document-units="mm"
     inkscape:zoom="0.49575348"
     inkscape:cx="365.10082"
     inkscape:cy="466.96596"
     inkscape:window-width="1920"
     inkscape:window-height="1001"
     inkscape:window-x="-9"
     inkscape:window-y="-9"
     inkscape:window-maximized="1"
     inkscape:current-layer="svg1" />
  <defs
     id="defs1">
    <pattern
       id="EMFhbasepattern"
       patternUnits="userSpaceOnUse"
       width="6"
       height="6"
       x="0"
       y="0" />
  </defs>
  <g
     inkscape:label="trip"
     inkscape:groupmode="layer"
     id="layer1"
     transform="translate(-82.029287,-0.027084)">
    <path
       style="fill:#606256;fill-opacity:1;fill-rule:nonzero;stroke:none;stroke-width:4.91221"
       d="m 272.99318,85.378284 c 13.09914,-3.274831 13.09914,-13.099324 13.09914,-13.099324 -32.74812,0 -32.74812,0 -32.74812,0 -19.64881,-19.648801 -39.2976,-26.198462 -65.49625,-26.198462 -26.19847,0 -47.48458,6.549661 -67.13358,26.198462 -32.748116,0 -32.748116,0 -32.748116,0 0,0 0,9.824493 13.099326,13.099324 -1.637518,3.274831 -4.912153,8.186985 -6.549668,11.461812 -3.274829,8.186994 -6.549658,14.736644 -6.549658,21.286304 0,27.83579 19.648976,45.84727 45.847446,45.84727 16.37397,0 31.11061,-8.18698 40.93511,-19.6488 13.09914,19.6488 13.09914,19.6488 13.09914,19.6488 13.09932,-19.6488 13.09932,-19.6488 13.09932,-19.6488 8.18699,11.46182 22.92364,19.6488 39.29779,19.6488 26.19846,0 45.84726,-18.01148 45.84726,-45.84727 0,-6.54966 -1.6375,-13.09931 -4.91215,-19.64879 -3.27483,-4.912341 -6.54966,-9.824495 -8.18699,-13.099326 z M 133.8137,150.87453 c -18.01148,0 -32.74812,-14.73665 -32.74812,-32.74813 0,-9.82448 4.91215,-18.01147 11.46181,-24.561131 6.54967,-4.912154 13.09932,-8.186985 21.28631,-8.186985 6.54967,0 11.46182,1.637508 14.73665,3.274831 11.46181,4.912154 19.64879,16.373975 19.64879,29.473285 0,18.01148 -14.73664,32.74813 -34.38544,32.74813 z m 54.03425,-13.09932 c 0,-19.64881 -9.82431,-37.66028 -21.28612,-50.759604 -9.8245,-9.824307 -21.28631,-14.736646 -32.74813,-14.736646 0,0 19.6488,-19.648801 54.03425,-19.648801 32.74812,0 52.39711,19.648801 52.39711,19.648801 -11.46182,0 -22.92382,6.549662 -32.74813,14.736646 -11.46181,13.099324 -19.64898,32.748124 -19.64898,50.759604 z m 52.39711,13.09932 c -18.01148,0 -32.74813,-14.73665 -32.74813,-32.74813 0,-13.09931 6.54967,-24.561131 18.01148,-29.473285 3.27483,-1.637509 8.18698,-3.274831 14.73665,-3.274831 8.18699,0 16.37397,3.274831 22.92363,9.824497 6.54966,4.912149 9.82449,13.099139 9.82449,22.923619 0,18.01148 -14.73665,32.74813 -32.74812,32.74813 z"
       id="path1-3" />
    <path
       style="fill:#606256;fill-opacity:1;fill-rule:nonzero;stroke:none;stroke-width:4.91221"
       d="m 240.24506,111.57674 c -3.27484,0 -6.54967,3.27483 -6.54967,6.54966 0,3.27484 3.27483,6.54967 6.54967,6.54967 3.27483,0 6.54947,-3.27483 6.54947,-6.54967 0,-3.27483 -3.27464,-6.54966 -6.54947,-6.54966 z"
       id="path2-7" />
    <path
       style="fill:#606256;fill-opacity:1;fill-rule:nonzero;stroke:none;stroke-width:4.91221"
       d="m 240.24506,98.47761 c -11.46182,0 -19.64899,8.18698 -19.64899,19.64879 0,11.46182 8.18717,19.64881 19.64899,19.64881 9.82431,0 19.6488,-8.18699 19.6488,-19.64881 0,-11.46181 -9.82449,-19.64879 -19.6488,-19.64879 z m 0,32.74794 c -8.18717,0 -13.09932,-6.54948 -13.09932,-13.09915 0,-6.54966 4.91215,-13.09931 13.09932,-13.09931 6.54947,0 13.09914,6.54965 13.09914,13.09931 0,6.54967 -6.54967,13.09915 -13.09914,13.09915 z"
       id="path3-7" />
    <path
       style="fill:#606256;fill-opacity:1;fill-rule:nonzero;stroke:none;stroke-width:4.91221"
       d="m 133.8137,111.57674 c -3.27483,0 -6.54966,3.27483 -6.54966,6.54966 0,3.27484 3.27483,6.54967 6.54966,6.54967 4.91215,0 6.54967,-3.27483 6.54967,-6.54967 0,-3.27483 -1.63752,-6.54966 -6.54967,-6.54966 z"
       id="path4-5" />
    <path
       style="fill:#606256;fill-opacity:1;fill-rule:nonzero;stroke:none;stroke-width:4.91221"
       d="m 133.8137,98.47761 c -9.82449,0 -19.64899,8.18698 -19.64899,19.64879 0,11.46182 9.8245,19.64881 19.64899,19.64881 11.46182,0 19.6488,-8.18699 19.6488,-19.64881 0,-11.46181 -8.18698,-19.64879 -19.6488,-19.64879 z m 0,32.74794 c -6.54966,0 -13.09933,-6.54948 -13.09933,-13.09915 0,-6.54966 6.54967,-13.09931 13.09933,-13.09931 8.18698,0 13.09913,6.54965 13.09913,13.09931 0,6.54967 -4.91215,13.09915 -13.09913,13.09915 z"
       id="path5-6" />
  </g>
</svg>
