<?xml version="1.0" encoding="UTF-8" standalone="no"?>
<!-- Created with Inkscape (http://www.inkscape.org/) -->

<svg
   width="210mm"
   height="210mm"
   viewBox="0 0 210 210"
   version="1.1"
   id="svg1"
   inkscape:version="1.3 (0e150ed6c4, 2023-07-21)"
   sodipodi:docname="youtube.svg"
   xmlns:inkscape="http://www.inkscape.org/namespaces/inkscape"
   xmlns:sodipodi="http://sodipodi.sourceforge.net/DTD/sodipodi-0.dtd"
   xmlns="http://www.w3.org/2000/svg"
   xmlns:svg="http://www.w3.org/2000/svg">
  <sodipodi:namedview
     id="namedview1"
     pagecolor="#ffffff"
     bordercolor="#666666"
     borderopacity="1.0"
     inkscape:showpageshadow="2"
     inkscape:pageopacity="0.0"
     inkscape:pagecheckerboard="0"
     inkscape:deskcolor="#d1d1d1"
     inkscape:document-units="mm"
     inkscape:zoom="0.49575348"
     inkscape:cx="769.5357"
     inkscape:cy="640.43928"
     inkscape:window-width="1920"
     inkscape:window-height="1001"
     inkscape:window-x="-9"
     inkscape:window-y="-9"
     inkscape:window-maximized="1"
     inkscape:current-layer="layer1" />
  <defs
     id="defs1" />
  <g
     inkscape:label="Calque 1"
     inkscape:groupmode="layer"
     id="layer1">
    <path
       d="m 105.04036,43.549199 c 0,0 -3.40855,0.005 -8.731754,0.06932 -2.66178,0.0347 -5.80031,0.06932 -9.23347,0.138648 -3.43297,0.06932 -7.156925,0.155975 -10.988495,0.268616 -3.83176,0.121312 -7.77632,0.251297 -11.63355,0.429799 -3.85722,0.178503 -7.63109,0.39513 -11.14102,0.653351 -1.75487,0.121313 -3.44389,0.270355 -5.0421,0.421128 -1.59786,0.155974 -3.10092,0.31715 -4.49567,0.492183 -1.3951,0.175041 -2.67928,0.362207 -3.82413,0.563238 -1.14554,0.201039 -2.15191,0.415935 -3.00024,0.644695 a 21.91789,21.91789 0 0 0 -5.26584,2.203214 21.91789,21.91789 0 0 0 -4.50486,3.492589 21.91789,21.91789 0 0 0 -3.46573,4.531724 21.91789,21.91789 0 0 0 -2.17635,5.274852 c -0.22703,0.854389 -0.43673,1.763364 -0.63603,2.722606 -0.1993,0.95837 -0.38127,1.96596 -0.55457,3.00908 -0.3466,2.0864 -0.64123,4.31388 -0.89599,6.60929 -0.25475,2.29558 -0.46791,4.65876 -0.64468,6.99437 -0.17677,2.33579 -0.31714,4.64455 -0.42979,6.85122 -0.12132,2.20668 -0.20451,4.30661 -0.26863,6.2152 -0.0693,1.90878 -0.10398,3.6276 -0.13864,5.068968 -0.052,2.88309 -0.052,4.66604 -0.052,4.66604 0,0 -0.003,1.77861 0.052,4.66586 0.0346,1.44361 0.0693,3.1666 0.13864,5.07797 0.0693,1.91137 0.15598,4.01459 0.26863,6.22421 0.12131,2.20963 0.25302,4.52168 0.42979,6.86007 0.17677,2.33839 0.38993,4.70572 0.64468,7.00338 0.25476,2.29767 0.54939,4.53069 0.89599,6.6183 0.1733,1.0433 0.357,2.04967 0.55457,3.00908 0.1993,0.96011 0.409,1.86856 0.63603,2.72261 a 22.009597,22.009597 0 0 0 2.18519,5.26601 22.009597,22.009597 0 0 0 3.4659,4.53155 22.009597,22.009597 0 0 0 4.50469,3.49277 22.009597,22.009597 0 0 0 5.257,2.21204 c 0.84746,0.24263 1.8554,0.4662 3.00024,0.68109 1.14553,0.2149 2.4292,0.4142 3.82413,0.59963 1.39509,0.18717 2.89746,0.3674 4.49567,0.52858 1.59787,0.15597 3.28723,0.30155 5.0421,0.43846 3.50993,0.27382 7.2838,0.50778 11.14102,0.69841 3.85723,0.19064 7.80179,0.34315 11.63355,0.46619 3.83157,0.12131 7.555525,0.2097 10.988495,0.27729 3.43316,0.0693 6.57169,0.12131 9.23347,0.13864 5.323204,0.0693 8.731754,0.0693 8.731754,0.0693 0,0 3.39936,0.003 8.71406,-0.052 2.65728,-0.0346 5.79668,-0.0867 9.22428,-0.13865 3.42778,-0.0693 7.14497,-0.13864 10.97083,-0.25995 3.82586,-0.12131 7.75483,-0.25996 11.60668,-0.43863 3.85168,-0.17851 7.62625,-0.39514 11.13183,-0.65336 1.75297,-0.12131 3.4368,-0.27036 5.03327,-0.42113 1.59613,-0.15597 3.11098,-0.30848 4.50469,-0.48352 1.39336,-0.17503 2.67078,-0.3726 3.81511,-0.57363 1.1438,-0.20104 2.15192,-0.41594 3.00024,-0.6447 a 21.872037,21.872037 0 0 0 5.24799,-2.20303 21.872037,21.872037 0 0 0 4.50468,-3.49277 21.872037,21.872037 0 0 0 3.44789,-4.53156 21.872037,21.872037 0 0 0 2.1585,-5.26601 c 0.22876,-0.85958 0.44365,-1.77653 0.64469,-2.74045 0.20103,-0.96357 0.3882,-1.98017 0.56496,-3.0271 0.35182,-2.09369 0.65509,-4.32739 0.91332,-6.62714 0.25822,-2.29992 0.47485,-4.66604 0.65335,-7.00339 0.18024,-2.33751 0.32409,-4.64454 0.43847,-6.85121 0.12131,-2.20669 0.19583,-4.30765 0.25995,-6.21521 0.0693,-1.90756 0.10398,-3.62881 0.13865,-5.06896 0.052,-2.88015 0.0693,-4.65703 0.0693,-4.65703 0,0 0.005,-1.78815 -0.052,-4.69272 -0.0347,-1.452288 -0.0693,-3.182728 -0.13864,-5.104838 -0.0693,-1.92195 -0.13865,-4.03902 -0.25996,-6.26008 -0.12132,-2.2209 -0.25649,-4.5468 -0.43846,-6.89577 -0.18197,-2.34914 -0.40553,-4.72409 -0.67242,-7.03025 -0.26689,-2.30632 -0.5823,-4.54368 -0.94971,-6.63632 -0.1837,-1.04676 -0.37087,-2.05712 -0.5823,-3.01809 -0.21143,-0.960102 -0.44019,-1.868387 -0.68108,-2.722433 a 21.78033,21.78033 0 0 0 -2.14914,-5.275019 21.78033,21.78033 0 0 0 -3.44806,-4.540564 21.78033,21.78033 0 0 0 -4.50469,-3.483757 21.78033,21.78033 0 0 0 -5.257,-2.203038 c -0.84745,-0.228761 -1.8566,-0.443656 -3.00006,-0.644696 -1.1438,-0.201031 -2.42279,-0.388197 -3.81511,-0.564969 -1.39337,-0.175032 -2.90111,-0.341409 -4.49585,-0.492182 -1.5944,-0.155975 -3.27355,-0.292883 -5.02409,-0.421128 -3.50143,-0.258221 -7.26767,-0.474857 -11.11415,-0.653359 -3.84647,-0.178503 -7.77753,-0.315411 -11.59767,-0.429792 -3.82014,-0.121312 -7.53057,-0.204501 -10.9528,-0.268623 -3.42241,-0.06932 -6.55349,-0.103978 -9.2066,-0.13864 -5.30605,-0.05201 -8.70488,-0.06932 -8.70488,-0.06932 z M 87.155896,78.996082 132.64195,104.86013 87.155896,130.76907 Z"
       style="display:inline;fill:#606256;fill-opacity:1;stroke-width:4.58533"
       id="path8"
       inkscape:label="youtube" />
  </g>
</svg>
